<svg xmlns="http://www.w3.org/2000/svg" viewBox="0 0 110.8 40"><path d="M.3.3h110.2v39.4H.3V.3z"/><path d="M.6.6h109.6v38.8H.6V.6zM0 40h110.8V0H0v40z" fill="#d2d2d2"/><path d="M9 8.8h10.7v10.7H9V8.8z" fill="#f25022"/><path d="M20.9 8.8h10.7v10.7H20.9V8.8z" fill="#7fba00"/><path d="M9 20.6h10.7v10.7H9V20.6z" fill="#00a4ef"/><path d="M20.9 20.6h10.7v10.7H20.9V20.6z" fill="#ffb900"/><path d="M52.3 20.9c0-.3.1-.6.3-.8.2-.2.5-.3.8-.3.3 0 .6.1.8.3s.3.5.3.8c0 .3-.1.6-.3.8-.2.2-.5.3-.8.3-.3 0-.6-.1-.8-.3-.1-.2-.3-.5-.3-.8m2.2 10.5h-1.9v-8.1h1.9v8.1zm5.8-1.4c.3 0 .6-.1.9-.2.3-.1.7-.3.9-.5v1.8c-.3.2-.7.3-1 .4-.4.1-.8.1-1.3.1-1.2 0-2.2-.4-2.9-1.1-.8-.8-1.1-1.7-1.1-2.9 0-1.3.4-2.4 1.2-3.2.8-.8 1.8-1.3 3.3-1.3.4 0 .7.1 1.1.1.4.1.7.2.9.3v1.8c-.3-.2-.6-.4-.9-.5-.3-.1-.6-.2-.9-.2-.8 0-1.4.2-1.8.7-.5.5-.7 1.2-.7 2s.2 1.5.7 1.9c.2.6.8.8 1.6.8m7.3-6.9h.4c.1 0 .2.1.3.1v1.9c-.1-.1-.2-.1-.4-.2s-.4-.1-.7-.1c-.5 0-.9.2-1.2.6-.3.4-.5 1-.5 1.8v4.1h-1.9v-8.1h1.9v1.3c.2-.4.4-.8.8-1 .4-.3.8-.4 1.3-.4m.8 4.3c0-1.3.4-2.4 1.1-3.2.8-.8 1.8-1.2 3.2-1.2 1.3 0 2.3.4 3 1.1.7.8 1.1 1.8 1.1 3.1s-.4 2.4-1.1 3.2c-.8.8-1.8 1.2-3.1 1.2s-2.3-.4-3-1.1c-.8-.8-1.2-1.8-1.2-3.1m2 0c0 .8.2 1.5.6 1.9.4.4.9.7 1.7.7.7 0 1.2-.2 1.6-.7.4-.4.6-1.1.6-2 0-.9-.2-1.5-.6-2-.4-.4-.9-.7-1.6-.7-.7 0-1.2.2-1.6.7-.5.5-.7 1.2-.7 2.1m9.3-2c0 .3.1.5.3.6.2.2.6.3 1.2.6.8.3 1.3.7 1.6 1 .3.4.5.8.5 1.4 0 .8-.3 1.4-.9 1.8s-1.4.7-2.4.7c-.3 0-.7 0-1.1-.1-.4-.1-.8-.2-1-.3v-1.9c.3.2.7.4 1.1.6.4.1.8.2 1.1.2.4 0 .8-.1 1-.2.2-.1.3-.3.3-.6s-.1-.5-.3-.7c-.2-.2-.6-.4-1.2-.6-.7-.3-1.2-.6-1.5-1-.3-.4-.4-.8-.4-1.4 0-.7.3-1.3.9-1.8.6-.5 1.3-.7 2.3-.7.3 0 .6 0 1 .1s.7.1.9.2v1.8c-.3-.2-.6-.3-.9-.4-.3-.1-.7-.2-1-.2-.4 0-.7.1-.8.2-.6.2-.7.4-.7.7m4.3 2c0-1.3.4-2.4 1.1-3.2.8-.8 1.8-1.2 3.2-1.2 1.3 0 2.3.4 3 1.1.7.8 1.1 1.8 1.1 3.1s-.4 2.4-1.1 3.2c-.8.8-1.8 1.2-3.1 1.2s-2.3-.4-3-1.1c-.8-.8-1.2-1.8-1.2-3.1m2 0c0 .8.2 1.5.6 1.9.4.4.9.7 1.7.7.7 0 1.2-.2 1.6-.7.4-.4.6-1.1.6-2 0-.9-.2-1.5-.6-2s-.9-.7-1.6-.7c-.7 0-1.2.2-1.6.7-.5.5-.7 1.2-.7 2.1m12.7-2.6V29c0 .9.2 1.5.6 1.9s1 .6 1.8.6c.3 0 .6 0 .8-.1.3-.1.5-.1.6-.2v-1.6c-.1.1-.3.1-.4.2s-.3.1-.4.1c-.4 0-.7-.1-.9-.3-.2-.2-.3-.6-.3-1.1v-3.8h1.9v-1.6h-1.9v-2.4l-1.9.6v1.8h-2.9v-1c0-.5.1-.9.3-1.1s.5-.4.9-.4c.2 0 .4 0 .6.1.2.1.3.1.3.1v-1.7c-.1-.1-.3-.1-.5-.1h-.6c-.9 0-1.6.3-2.1.8-.6.6-.8 1.2-.8 2.1V23h-1.4v1.6h1.4v6.6h1.9v-6.6l3 .2zm-48-4.8v11.4h-2v-8.9l-3.5 8.9h-1.3l-3.6-8.9v8.9h-1.8V20h2.8l3.3 8.4h.1L48 20h2.7zm-7.1-4.9c-.7.4-1.4.6-2.3.6-.7 0-1.2-.1-1.7-.4-.6-.3-1-.7-1.2-1.3-.3-.5-.4-1.1-.4-1.8s.2-1.3.4-1.9c.3-.5.7-1 1.3-1.3.6-.3 1.2-.5 1.9-.5.3 0 .7 0 1 .1.3.1.6.2.8.3v1c-.5-.3-1.2-.5-2-.5-.5 0-.9.1-1.3.3-.4.2-.7.6-.9.9-.2.4-.3.9-.3 1.4 0 .8.2 1.4.6 1.9.4.5 1 .7 1.8.7.5 0 .9-.1 1.3-.3v-1.8h-1.4V12h2.4v3.1zm5.5-1.7h-3.4c0 .5.2.9.4 1.1.3.3.6.4 1.1.4.6 0 1.1-.2 1.5-.5v.8c-.2.1-.4.2-.7.3-.3.1-.6.1-.9.1-.7 0-1.3-.2-1.7-.7-.4-.4-.6-1.1-.6-1.8 0-.5.1-.9.3-1.3.2-.4.5-.7.8-.9.3-.2.7-.3 1.2-.3.6 0 1.1.2 1.5.6.4.4.5 1 .5 1.7v.5zm-.9-.7c0-.4-.1-.7-.3-1-.2-.2-.5-.3-.8-.3-.3 0-.6.1-.8.3-.2.2-.4.6-.5.9h2.4zm4.6 2.8c-.1.1-.2.1-.4.1H52c-.9 0-1.3-.5-1.3-1.5v-2.7h-.8v-.8h.8v-1l.9-.3v1.4h1.2v.8h-1.2V14c0 .3.1.6.2.7.1.1.3.2.6.2.2 0 .3-.1.5-.2l-.1.8zM57.4 9c0 .2-.1.3-.2.4-.1.1-.3.2-.4.2s-.3-.1-.4-.2c-.1-.1-.2-.2-.2-.4s.1-.3.2-.4c.1-.1.3-.2.4-.2s.3.1.4.2c.1.1.2.2.2.4m-.1 6.6h-.9v-4.8h.9v4.8zm4-.1c-.1.1-.2.1-.4.1h-.4c-.9 0-1.3-.5-1.3-1.5v-2.7h-.8v-.8h.8v-1l.9-.3v1.4h1.2v.8h-1.2V14c0 .3.1.6.2.7s.3.2.6.2c.2 0 .3-.1.5-.2l-.1.8zm6.2-6.3c-.2-.1-.3-.1-.5-.1-.5 0-.8.3-.8 1v.7h1.1v.8h-1.1v4.1h-.9v-4.1h-.8v-.8h.8V10c0-.5.1-.9.4-1.2.3-.3.7-.5 1.2-.5.3 0 .4 0 .6.1v.8zm3.4 2.5c-.1 0-.2-.1-.3-.1-.1 0-.2-.1-.3-.1-.3 0-.6.2-.8.4-.2.3-.3.7-.3 1.2v2.5h-.9v-4.8h.9v1c.1-.3.3-.6.5-.8s.5-.3.8-.3c.2 0 .3 0 .4.1v.9zm5.4 1.4c0 .8-.2 1.4-.7 1.9-.4.5-1.1.7-1.8.7s-1.3-.2-1.8-.7c-.4-.4-.7-1.1-.7-1.8 0-.8.2-1.4.7-1.9.4-.5 1.1-.7 1.8-.7s1.3.2 1.7.7c.6.4.8 1 .8 1.8m-1 .1c0-.6-.1-1-.4-1.3-.3-.3-.6-.4-1.1-.4s-.8.2-1.1.5c-.3.3-.4.8-.4 1.3 0 .6.1 1 .4 1.3s.6.5 1.1.5c.5 0 .8-.2 1.1-.4.3-.5.4-1 .4-1.5m9.3 2.4h-.9v-2.8c0-.5-.1-.9-.2-1.1-.2-.2-.4-.3-.8-.3-.3 0-.6.1-.8.4-.2.3-.3.6-.3 1v2.7h-.9v-2.8c0-.9-.3-1.3-1-1.3-.3 0-.6.1-.8.4-.2.3-.3.6-.3 1v2.7h-.9v-4.9h.9v.8c.3-.6.9-.9 1.5-.9.3 0 .6.1.8.3.2.2.4.4.5.7.2-.3.4-.6.7-.7.3-.2.6-.2.9-.2 1.1 0 1.6.7 1.6 2v3z" fill="#fff"/></svg>